<?xml version="1.0" encoding="UTF-8" standalone="no"?>
<!-- Created with Inkscape (http://www.inkscape.org/) -->

<svg
   xmlns:dc="http://purl.org/dc/elements/1.1/"
   xmlns:cc="http://creativecommons.org/ns#"
   xmlns:rdf="http://www.w3.org/1999/02/22-rdf-syntax-ns#"
   xmlns:svg="http://www.w3.org/2000/svg"
   xmlns="http://www.w3.org/2000/svg"
   xmlns:sodipodi="http://sodipodi.sourceforge.net/DTD/sodipodi-0.dtd"
   xmlns:inkscape="http://www.inkscape.org/namespaces/inkscape"
   width="422.78571"
   height="268.19815"
   viewBox="0 0 111.86206 70.960762"
   version="1.1"
   id="svg8"
   inkscape:version="0.92.5 (2060ec1f9f, 2020-04-08)"
   sodipodi:docname="body.svg">
  <defs
     id="defs2">
    <mask
       maskUnits="userSpaceOnUse"
       id="mask908">
      <path
         style="fill:#ffffff;fill-opacity:1;stroke:none;stroke-width:0.26458332px;stroke-linecap:butt;stroke-linejoin:miter;stroke-opacity:1"
         d="m 71.569792,42.465625 c 0,0 -2.645836,5.490104 0.727604,6.35 3.373435,0.859896 3.836458,7.540625 3.638021,8.268229 -0.198438,0.727604 5.622393,5.027083 6.35,5.027083 0.727604,0 2.182812,8.334375 3.505729,8.400519 1.587497,1.124484 14.765064,4.020783 12.633854,13.69219 l 7.04688,8.77802 c 0,0 7.04218,7.824584 -12.140109,7.626144 -19.182292,-0.19844 -23.703775,1.84333 -26.061459,1.85208 -2.357683,0.009 -6.085416,-1.5875 -8.995833,-1.12447 -2.910417,0.46302 -6.443866,5.67204 -6.443866,5.67204 l 78.663767,-2.55987 0.0293,-5.687162 z"
         id="path910"
         inkscape:connector-curvature="0"
         sodipodi:nodetypes="cssscccszccccc" />
    </mask>
    <mask
       maskUnits="userSpaceOnUse"
       id="mask913">
      <path
         sodipodi:nodetypes="czzssssccccc"
         inkscape:connector-curvature="0"
         id="path915"
         d="m 60.192708,35.057292 c 0,0 0.817819,7.288508 0.198433,8.40052 -0.619385,1.11201 -0.712658,6.303495 0.79375,7.672917 1.506407,1.369423 2.666759,5.316421 2.116666,8.433594 -0.198437,1.124479 5.816812,2.91511 5.291667,10.748698 -0.06763,1.008822 0.0555,13.929685 -6.8785,20.640384 -6.876733,6.655273 -20.783735,7.111145 -27.361542,5.642671 -16.66527,-3.720471 -16.494089,3.925974 -16.494089,3.925974 l 88.123887,10.85947 2.25446,-24.150017 -38.266282,-54.283919 z"
         style="fill:#ffffff;stroke:none;stroke-width:0.26458332px;stroke-linecap:butt;stroke-linejoin:miter;stroke-opacity:1" />
    </mask>
    <filter
       inkscape:collect="always"
       style="color-interpolation-filters:sRGB"
       id="filter1091"
       x="-0.1262453"
       width="1.2524906"
       y="-0.11434347"
       height="1.2286869">
      <feGaussianBlur
         inkscape:collect="always"
         stdDeviation="0.34866019"
         id="feGaussianBlur1093" />
    </filter>
    <filter
       inkscape:collect="always"
       style="color-interpolation-filters:sRGB"
       id="filter1103"
       x="-0.13217568"
       width="1.2643514"
       y="-0.10987829"
       height="1.2197566">
      <feGaussianBlur
         inkscape:collect="always"
         stdDeviation="0.29055525"
         id="feGaussianBlur1105" />
    </filter>
    <filter
       inkscape:collect="always"
       style="color-interpolation-filters:sRGB"
       id="filter1239"
       x="-0.092273287"
       width="1.1845466"
       y="-0.17154737"
       height="1.3430947">
      <feGaussianBlur
         inkscape:collect="always"
         stdDeviation="0.23407751"
         id="feGaussianBlur1241" />
    </filter>
    <filter
       inkscape:collect="always"
       style="color-interpolation-filters:sRGB"
       id="filter1243"
       x="-0.097253576"
       width="1.1945072"
       y="-0.15663502"
       height="1.31327">
      <feGaussianBlur
         inkscape:collect="always"
         stdDeviation="0.13677456"
         id="feGaussianBlur1245" />
    </filter>
    <filter
       inkscape:collect="always"
       style="color-interpolation-filters:sRGB"
       id="filter1247"
       x="-0.094752155"
       width="1.1895043"
       y="-0.16359068"
       height="1.3271815">
      <feGaussianBlur
         inkscape:collect="always"
         stdDeviation="0.27405477"
         id="feGaussianBlur1249" />
    </filter>
    <filter
       inkscape:collect="always"
       style="color-interpolation-filters:sRGB"
       id="filter1255"
       x="-0.1196989"
       width="1.2393978"
       y="-0.12030262"
       height="1.2406052">
      <feGaussianBlur
         inkscape:collect="always"
         stdDeviation="0.092070986"
         id="feGaussianBlur1257" />
    </filter>
    <filter
       inkscape:collect="always"
       style="color-interpolation-filters:sRGB"
       id="filter1267"
       x="-0.087272123"
       width="1.1745442"
       y="-0.19200294"
       height="1.3840059">
      <feGaussianBlur
         inkscape:collect="always"
         stdDeviation="0.15875283"
         id="feGaussianBlur1269" />
    </filter>
    <filter
       inkscape:collect="always"
       style="color-interpolation-filters:sRGB"
       id="filter1275"
       x="-0.12820138"
       width="1.2564029"
       y="-0.11278485"
       height="1.2255697">
      <feGaussianBlur
         inkscape:collect="always"
         stdDeviation="0.10571905"
         id="feGaussianBlur1277" />
    </filter>
  </defs>
  <sodipodi:namedview
     id="base"
     pagecolor="#ffffff"
     bordercolor="#666666"
     borderopacity="1.0"
     inkscape:pageopacity="0.0"
     inkscape:pageshadow="2"
     inkscape:zoom="1.4142136"
     inkscape:cx="133.10649"
     inkscape:cy="148.55747"
     inkscape:document-units="mm"
     inkscape:current-layer="svg8"
     showgrid="false"
     units="px"
     inkscape:window-width="1600"
     inkscape:window-height="829"
     inkscape:window-x="0"
     inkscape:window-y="0"
     inkscape:window-maximized="1"
     fit-margin-top="0"
     fit-margin-left="0"
     fit-margin-right="0"
     fit-margin-bottom="0" />
  <metadata
     id="metadata5">
    <rdf:RDF>
      <cc:Work
         rdf:about="">
        <dc:format>image/svg+xml</dc:format>
        <dc:type
           rdf:resource="http://purl.org/dc/dcmitype/StillImage" />
        <dc:title />
      </cc:Work>
    </rdf:RDF>
  </metadata>
  <path
     inkscape:label="Тело светлая заливка"
     sodipodi:nodetypes="ccscccccczccccssccc"
     inkscape:connector-curvature="0"
     id="path892"
     d="M 8.4726659,3.6842665 3.7954489,23.328577 c 0,0 -5.799748,6.548104 -2.245064,13.470384 3.554685,6.922281 3.367596,11.599497 3.367596,11.599497 0,0 -5.25930105,15.436187 8.2319031,17.586337 l 12.347852,1.02899 c 0,0 9.167344,0.8419 14.967093,2.3386 5.799749,1.49672 2.215885,0.91275 7.307805,1.21041 6.83267,-0.64345 24.169861,-2.5668 46.246324,-2.00553 0,0 17.387902,1.13596 17.446022,-1.6838 0.0581,-2.819762 -12.441402,-4.209494 -22.357102,-11.739813 0,0 -7.20291,-3.320823 -6.45456,-7.99804 C 81.296933,40.40042 77.2712,37.789201 72.12626,36.479582 67.304965,35.224683 66.5042,30.252804 66.5042,30.252804 c 0,0 -0.923944,-4.249547 -4.161346,-6.207971 -2.785139,-1.684835 -3.098092,-2.381958 -3.367598,-5.692101 0,0 0.277127,-1.333563 -4.777407,-6.007589 L 47.587493,0.41686254 Z"
     style="display:inline;opacity:1;fill:#636059;fill-opacity:1;stroke:none;stroke-width:0.79374999;stroke-linecap:butt;stroke-linejoin:miter;stroke-miterlimit:4;stroke-dasharray:none;stroke-opacity:1" />
  <path
     inkscape:label="Тело средняя заливка"
     sodipodi:nodetypes="ccscccccczccccssccc"
     inkscape:connector-curvature="0"
     id="path894"
     d="m 26.940768,38.560242 -4.677217,19.64431 c 0,0 -5.799748,6.548104 -2.245064,13.470384 3.554685,6.922281 3.367596,11.599497 3.367596,11.599497 0,0 -5.259301,15.436187 8.231903,17.586337 l 12.347852,1.02899 c 0,0 9.167344,0.8419 14.967093,2.3386 5.799749,1.49672 2.215885,0.91275 7.307805,1.21041 6.83267,-0.64345 24.169861,-2.5668 46.246324,-2.00553 0,0 17.3879,1.13596 17.44602,-1.6838 0.0581,-2.819762 -12.4414,-4.209494 -22.3571,-11.739813 0,0 -7.20291,-3.320823 -6.45456,-7.99804 -1.356385,-6.735192 -5.382118,-9.346411 -10.527058,-10.65603 -4.821295,-1.254899 -5.62206,-6.226778 -5.62206,-6.226778 0,0 -0.923944,-4.249547 -4.161346,-6.207971 -2.785139,-1.684835 -3.098092,-2.381958 -3.367598,-5.692101 0,0 0.277127,-1.333563 -4.777407,-6.007589 l -6.610356,-11.92828 z"
     style="display:inline;opacity:1;fill:#45413e;fill-opacity:1;stroke:none;stroke-width:0.79374999;stroke-linecap:butt;stroke-linejoin:miter;stroke-miterlimit:4;stroke-dasharray:none;stroke-opacity:1"
     mask="url(#mask913)"
     transform="translate(-18.468102,-34.875975)" />
  <path
     style="display:inline;opacity:1;fill:#2d282a;fill-opacity:1;stroke:none;stroke-width:0.79374999;stroke-linecap:butt;stroke-linejoin:miter;stroke-miterlimit:4;stroke-dasharray:none;stroke-opacity:1"
     d="m 26.940768,38.560242 -4.677217,19.64431 c 0,0 -5.799748,6.548104 -2.245064,13.470384 3.554685,6.922281 3.367596,11.599497 3.367596,11.599497 0,0 -5.259301,15.436187 8.231903,17.586337 l 12.347852,1.02899 c 0,0 9.167344,0.8419 14.967093,2.3386 5.799749,1.49672 2.215885,0.91275 7.307805,1.21041 6.83267,-0.64345 24.169861,-2.5668 46.246324,-2.00553 0,0 17.3879,1.13596 17.44602,-1.6838 0.0581,-2.819762 -12.4414,-4.209494 -22.3571,-11.739813 0,0 -7.20291,-3.320823 -6.45456,-7.99804 -1.356385,-6.735192 -5.382118,-9.346411 -10.527058,-10.65603 -4.821295,-1.254899 -5.62206,-6.226778 -5.62206,-6.226778 0,0 -0.923944,-4.249547 -4.161346,-6.207971 -2.785139,-1.684835 -3.098092,-2.381958 -3.367598,-5.692101 0,0 0.277127,-1.333563 -4.777407,-6.007589 l -6.610356,-11.92828 z"
     id="path82"
     inkscape:connector-curvature="0"
     sodipodi:nodetypes="ccscccccczccccssccc"
     inkscape:label="Тело тёмная заливка"
     mask="url(#mask908)"
     transform="translate(-18.468102,-34.875975)" />
  <path
     style="display:inline;fill:#2b2620;fill-opacity:1;stroke:#27201a;stroke-width:0.26458332px;stroke-linecap:butt;stroke-linejoin:miter;stroke-opacity:1;filter:url(#filter1091)"
     d="m 60.840751,23.299285 c 0,0 5.920052,4.365625 4.828646,6.383073 -1.091406,2.017447 -4.861719,0.23151 -5.32474,-0.363802 -0.46302,-0.595313 -2.645833,-3.340365 0.496094,-6.019271 z"
     id="path1027"
     inkscape:connector-curvature="0"
     inkscape:label="пятно"
     sodipodi:nodetypes="cscc" />
  <path
     style="display:inline;fill:#2b2620;fill-opacity:1;stroke:#27201a;stroke-width:0.26458332px;stroke-linecap:butt;stroke-linejoin:miter;stroke-opacity:1;filter:url(#filter1103)"
     d="m 67.091532,48.732357 c 0,0 -0.02521,-3.808023 2.645834,-3.373437 2.343306,0.381262 2.513541,2.943489 2.513541,2.943489 0,0 0.727605,2.348177 -1.455208,3.241146 -2.070006,0.846821 -3.704167,-2.811198 -3.704167,-2.811198 z"
     id="path1089"
     inkscape:connector-curvature="0"
     sodipodi:nodetypes="cscsc"
     inkscape:label="пятно" />
  <path
     style="fill:#2b2620;fill-opacity:1;stroke:#27201a;stroke-width:0.26458332px;stroke-linecap:butt;stroke-linejoin:miter;stroke-opacity:1;filter:url(#filter1243)"
     d="m 73.937626,51.312045 c -0.248047,-0.578776 0.287761,-1.305962 1.339453,-1.670182 1.051691,-0.364221 1.835543,0.0496 1.967839,0.677994 0.132296,0.628394 -1.389063,1.835547 -3.307292,0.992188 z"
     id="path1107"
     inkscape:connector-curvature="0"
     sodipodi:nodetypes="czzc"
     inkscape:label="пятно" />
  <path
     style="fill:#2b2620;fill-opacity:1;stroke:#27201a;stroke-width:0.26458332px;stroke-linecap:butt;stroke-linejoin:miter;stroke-opacity:1;filter:url(#filter1239)"
     d="m 80.469527,65.599545 c -0.373716,-0.818614 -0.341907,-2.447133 1.802471,-2.778125 2.14438,-0.330992 4.20197,2.525675 4.10104,2.844275 -0.10093,0.3186 -5.529795,0.75246 -5.903511,-0.0661 z"
     id="path1109"
     inkscape:connector-curvature="0"
     sodipodi:nodetypes="zzzz"
     inkscape:label="пятно" />
  <path
     style="fill:#2b2620;fill-opacity:1;stroke:#27201a;stroke-width:0.26458332px;stroke-linecap:butt;stroke-linejoin:miter;stroke-opacity:1;filter:url(#filter1275)"
     d="m 73.524215,65.979875 c 0,0 -0.79375,-1.819002 1.25677,-1.984366 1.223698,0.314189 0.33073,3.108846 -1.25677,1.984366 z"
     id="path1111"
     inkscape:connector-curvature="0"
     sodipodi:nodetypes="ccc"
     inkscape:label="пятно" />
  <path
     style="fill:#2b2620;fill-opacity:1;stroke:#27201a;stroke-width:0.26458332px;stroke-linecap:butt;stroke-linejoin:miter;stroke-opacity:1;filter:url(#filter1267)"
     d="m 74.995959,68.840695 c 0,0 -0.04975,-1.95699 1.984375,-1.98438 2.326453,0.17134 2.38125,1.65365 2.38125,1.65365 z"
     id="path1113"
     inkscape:connector-curvature="0"
     sodipodi:nodetypes="cccc"
     inkscape:label="пятно" />
  <path
     style="fill:#2b2620;fill-opacity:1;stroke:#27201a;stroke-width:0.26458332px;stroke-linecap:butt;stroke-linejoin:miter;stroke-opacity:1;filter:url(#filter1255)"
     d="m 89.532678,65.751215 c 0,0 -0.59967,-1.311229 0.39252,-1.641958 0.99219,-0.330729 1.29799,0.531749 1.27248,0.949428 -0.0255,0.41768 -0.60666,1.0894 -1.665,0.69253 z"
     id="path1115"
     inkscape:connector-curvature="0"
     sodipodi:nodetypes="cszc"
     inkscape:label="пятно" />
  <path
     style="fill:#2b2620;fill-opacity:1;stroke:#27201a;stroke-width:0.26458332px;stroke-linecap:butt;stroke-linejoin:miter;stroke-opacity:1;filter:url(#filter1247)"
     d="m 102.97565,62.656055 6.74687,2.51354 c 0,0 -1.48828,1.70326 -4.16719,1.48829 -2.95472,-0.23711 -3.00963,-3.20808 -2.57968,-4.00183 z"
     id="path1117"
     inkscape:connector-curvature="0"
     sodipodi:nodetypes="ccsc"
     inkscape:label="пятно" />
  <path
     style="display:inline;fill:none;fill-opacity:1;stroke:#2a2723;stroke-width:0.79374999;stroke-linecap:butt;stroke-linejoin:miter;stroke-miterlimit:4;stroke-dasharray:none;stroke-opacity:1"
     d="M 8.4726659,3.6842665 3.7954489,23.328577 c 0,0 -5.799748,6.548104 -2.245064,13.470384 3.554685,6.922281 3.367596,11.599497 3.367596,11.599497 0,0 -5.25930105,15.436187 8.2319031,17.586337 l 12.347852,1.02899 c 0,0 9.167344,0.8419 14.967093,2.3386 5.799749,1.49672 2.215885,0.91275 7.307805,1.21041 6.83267,-0.64345 24.169861,-2.5668 46.246324,-2.00553 0,0 17.387902,1.13596 17.446022,-1.6838 0.0581,-2.819762 -12.441402,-4.209494 -22.357102,-11.739813 0,0 -7.20291,-3.320823 -6.45456,-7.99804 C 81.296933,40.40042 77.2712,37.789201 72.12626,36.479582 67.304965,35.224683 66.5042,30.252804 66.5042,30.252804 c 0,0 -0.923944,-4.249547 -4.161346,-6.207971 -2.785139,-1.684835 -3.098092,-2.381958 -3.367598,-5.692101 0,0 0.277127,-1.333563 -4.777407,-6.007589 L 47.587493,0.41686254 Z"
     id="path896"
     inkscape:connector-curvature="0"
     sodipodi:nodetypes="ccscccccczccccssccc"
     inkscape:label="Тело обводка" />
  <g
     inkscape:label="Layer 1"
     inkscape:groupmode="layer"
     id="layer1"
     style="display:none;opacity:1"
     transform="translate(-18.468102,-199.5843)"
     sodipodi:insensitive="true" />
</svg>
