<?xml version="1.0" encoding="UTF-8" standalone="no"?>
<!-- Created with Inkscape (http://www.inkscape.org/) -->

<svg
   xmlns:dc="http://purl.org/dc/elements/1.1/"
   xmlns:cc="http://creativecommons.org/ns#"
   xmlns:rdf="http://www.w3.org/1999/02/22-rdf-syntax-ns#"
   xmlns:svg="http://www.w3.org/2000/svg"
   xmlns="http://www.w3.org/2000/svg"
   xmlns:sodipodi="http://sodipodi.sourceforge.net/DTD/sodipodi-0.dtd"
   xmlns:inkscape="http://www.inkscape.org/namespaces/inkscape"
   width="98.396477"
   height="118.60342"
   viewBox="0 0 26.034066 31.380488"
   version="1.1"
   id="svg8"
   inkscape:version="0.92.5 (2060ec1f9f, 2020-04-08)"
   sodipodi:docname="distantLeg.svg"
   inkscape:export-filename="/home/numa/Изображения/игра/куопна/distantLeg.png"
   inkscape:export-xdpi="96"
   inkscape:export-ydpi="96">
  <defs
     id="defs2">
    <mask
       maskUnits="userSpaceOnUse"
       id="mask908">
      <path
         style="fill:#ffffff;fill-opacity:1;stroke:none;stroke-width:0.26458332px;stroke-linecap:butt;stroke-linejoin:miter;stroke-opacity:1"
         d="m 71.569792,42.465625 c 0,0 -2.645836,5.490104 0.727604,6.35 3.373435,0.859896 3.836458,7.540625 3.638021,8.268229 -0.198438,0.727604 5.622393,5.027083 6.35,5.027083 0.727604,0 2.182812,8.334375 3.505729,8.400519 1.587497,1.124484 14.765064,4.020783 12.633854,13.69219 l 7.04688,8.77802 c 0,0 7.04218,7.824584 -12.140109,7.626144 -19.182292,-0.19844 -23.703775,1.84333 -26.061459,1.85208 -2.357683,0.009 -6.085416,-1.5875 -8.995833,-1.12447 -2.910417,0.46302 -6.443866,5.67204 -6.443866,5.67204 l 78.663767,-2.55987 0.0293,-5.687162 z"
         id="path910"
         inkscape:connector-curvature="0"
         sodipodi:nodetypes="cssscccszccccc" />
    </mask>
    <mask
       maskUnits="userSpaceOnUse"
       id="mask913">
      <path
         sodipodi:nodetypes="czzssssccccc"
         inkscape:connector-curvature="0"
         id="path915"
         d="m 60.192708,35.057292 c 0,0 0.817819,7.288508 0.198433,8.40052 -0.619385,1.11201 -0.712658,6.303495 0.79375,7.672917 1.506407,1.369423 2.666759,5.316421 2.116666,8.433594 -0.198437,1.124479 5.816812,2.91511 5.291667,10.748698 -0.06763,1.008822 0.0555,13.929685 -6.8785,20.640384 -6.876733,6.655273 -20.783735,7.111145 -27.361542,5.642671 -16.66527,-3.720471 -16.494089,3.925974 -16.494089,3.925974 l 88.123887,10.85947 2.25446,-24.150017 -38.266282,-54.283919 z"
         style="fill:#ffffff;stroke:none;stroke-width:0.26458332px;stroke-linecap:butt;stroke-linejoin:miter;stroke-opacity:1" />
    </mask>
    <mask
       maskUnits="userSpaceOnUse"
       id="mask2087">
      <path
         style="fill:#fff7ec;fill-opacity:1;stroke:none;stroke-width:0.26458332px;stroke-linecap:butt;stroke-linejoin:miter;stroke-opacity:1"
         d="m 11.178646,85.725 c 0,0 -6.2838543,-2.38125 -4.1671879,-6.482294 2.1166669,-4.101039 0.5953125,-6.482289 3.2411459,-6.482289 2.645833,0 5.027083,0.926039 5.027083,0.926039 0,0 1.653646,0.859898 4.696354,0.661461 3.042709,-0.198438 4.233334,-2.248961 4.431771,-4.034896 0.198438,-1.78594 2.976563,1.785935 2.976563,1.785935 l 0.661458,5.159375 z"
         id="path2089"
         inkscape:connector-curvature="0" />
    </mask>
    <mask
       maskUnits="userSpaceOnUse"
       id="mask2226">
      <path
         style="fill:#ffffff;fill-opacity:1;stroke:none;stroke-width:0.26458332px;stroke-linecap:butt;stroke-linejoin:miter;stroke-opacity:1"
         d="m 47.492708,16.007291 c 0,0 18.785417,18.785417 18.25625,37.570834 L 75.670831,42.730208 64.822917,23.283333 Z"
         id="path2228"
         inkscape:connector-curvature="0"
         sodipodi:nodetypes="ccccc" />
    </mask>
    <filter
       inkscape:collect="always"
       style="color-interpolation-filters:sRGB"
       id="filter2250"
       x="-0.17793559"
       width="1.3558712"
       y="-0.18211289"
       height="1.3642257">
      <feGaussianBlur
         inkscape:collect="always"
         stdDeviation="0.27786881"
         id="feGaussianBlur2252" />
    </filter>
    <mask
       maskUnits="userSpaceOnUse"
       id="mask2462">
      <path
         style="fill:#ffffff;fill-opacity:1;stroke:none;stroke-width:0.26458332px;stroke-linecap:butt;stroke-linejoin:miter;stroke-opacity:1"
         d="m 47.426978,97.493172 c 0,0 3.577479,1.606984 6.686333,-2.229475 0,0 -3.101639,-7.360351 7.441404,-12.13776 L 60.325,82.417706 c 0,0 4.75515,-0.927206 11.704137,5.721035 L 66.344271,78.845831 48.41875,78.713542 Z"
         id="path2464"
         inkscape:connector-curvature="0"
         sodipodi:nodetypes="cccccccc" />
    </mask>
    <filter
       inkscape:collect="always"
       style="color-interpolation-filters:sRGB"
       id="filter2496"
       x="-0.12068499"
       width="1.24137"
       y="-0.11932274"
       height="1.2386456">
      <feGaussianBlur
         inkscape:collect="always"
         stdDeviation="0.11285086"
         id="feGaussianBlur2498" />
    </filter>
  </defs>
  <sodipodi:namedview
     id="base"
     pagecolor="#ffffff"
     bordercolor="#666666"
     borderopacity="1.0"
     inkscape:pageopacity="0.0"
     inkscape:pageshadow="2"
     inkscape:zoom="1"
     inkscape:cx="-21.239527"
     inkscape:cy="110.63033"
     inkscape:document-units="mm"
     inkscape:current-layer="svg8"
     showgrid="false"
     units="px"
     inkscape:window-width="1600"
     inkscape:window-height="829"
     inkscape:window-x="0"
     inkscape:window-y="0"
     inkscape:window-maximized="1"
     fit-margin-top="0"
     fit-margin-left="0"
     fit-margin-right="0"
     fit-margin-bottom="0" />
  <metadata
     id="metadata5">
    <rdf:RDF>
      <cc:Work
         rdf:about="">
        <dc:format>image/svg+xml</dc:format>
        <dc:type
           rdf:resource="http://purl.org/dc/dcmitype/StillImage" />
        <dc:title></dc:title>
      </cc:Work>
    </rdf:RDF>
  </metadata>
  <g
     inkscape:label="Layer 1"
     inkscape:groupmode="layer"
     id="layer1"
     style="display:none;opacity:1"
     transform="translate(-11.687583,-239.84486)"
     sodipodi:insensitive="true" />
  <path
     inkscape:label="Ступня заливка"
     sodipodi:nodetypes="cccccccsccc"
     inkscape:connector-curvature="0"
     id="path2527"
     d="m 25.354083,17.732213 c 0,0 -7.254032,10.517871 -11.222782,9.327251 -3.96875,-1.19063 -7.1764195,4.11571 -7.1764195,4.11571 0,0 0.216435,-3.05405 0.018,-3.38478 -0.198437,-0.33073 0.306857,-2.68292 0.306857,-2.68292 l -0.601907,1.61551 c 0,0 -4.146672,-0.60119 -6.22803403,3.02366 0,0 -0.315854,-4.984079 0.59620303,-5.030849 0.912057,-0.04677 4.408419,0.727809 8.688072,-3.201057 4.1159505,-1.683797 9.2608875,-4.864305 9.2608875,-4.864305 z"
     style="fill:#45413e;fill-opacity:1;stroke:none;stroke-width:0.79374999;stroke-linecap:butt;stroke-linejoin:miter;stroke-miterlimit:4;stroke-dasharray:none;stroke-opacity:1" />
  <path
     style="fill:none;stroke:#2a2723;stroke-width:0.79374999;stroke-linecap:butt;stroke-linejoin:miter;stroke-miterlimit:4;stroke-dasharray:none;stroke-opacity:1"
     d="m 25.354083,17.732213 c 0,0 -7.254032,10.517871 -11.222782,9.327251 -3.96875,-1.19063 -7.1764195,4.11571 -7.1764195,4.11571 0,0 0.216435,-3.05405 0.018,-3.38478 -0.198437,-0.33073 0.306857,-2.68292 0.306857,-2.68292 l -0.601907,1.61551 c 0,0 -4.146672,-0.60119 -6.22803403,3.02366 0,0 -0.315854,-4.984079 0.59620303,-5.030849 0.912057,-0.04677 4.408419,0.727809 8.688072,-3.201057 4.1159505,-1.683797 9.2608875,-4.864305 9.2608875,-4.864305 z"
     id="path2523"
     inkscape:connector-curvature="0"
     sodipodi:nodetypes="cccccccsccc"
     inkscape:label="Ступня обводка" />
  <path
     style="fill:#636059;fill-opacity:1;stroke:none;stroke-width:0.79374999;stroke-linecap:butt;stroke-linejoin:miter;stroke-miterlimit:4;stroke-dasharray:none;stroke-opacity:1"
     d="m 15.151089,18.856693 c 0,0 -4.78169,2.719865 -5.4170165,2.658043 -0.635327,-0.06182 -1.356396,-2.057974 -0.537882,-3.39098 0.8185115,-1.333007 -0.467722,-0.701582 -0.467722,-0.701582 0,0 -6.326989,-10.0087113 5.1823855,-16.7555863 z"
     id="path2525"
     inkscape:connector-curvature="0"
     sodipodi:nodetypes="cccccc"
     inkscape:label="Бедро заливка" />
  <path
     inkscape:label="Бедро обводка"
     sodipodi:nodetypes="cccccc"
     inkscape:connector-curvature="0"
     id="path2529"
     d="m 15.151089,18.856693 c 0,0 -4.78169,2.719865 -5.4170165,2.658043 -0.635327,-0.06182 -1.356396,-2.057974 -0.537882,-3.39098 0.8185115,-1.333007 -0.467722,-0.701582 -0.467722,-0.701582 0,0 -6.326989,-10.0087113 5.1823855,-16.7555863 z"
     style="fill:none;stroke:#2a2723;stroke-width:0.79374999;stroke-linecap:butt;stroke-linejoin:miter;stroke-miterlimit:4;stroke-dasharray:none;stroke-opacity:1" />
</svg>
