<?xml version="1.0" encoding="UTF-8" standalone="no"?>
<!-- Created with Inkscape (http://www.inkscape.org/) -->

<svg
   xmlns:dc="http://purl.org/dc/elements/1.1/"
   xmlns:cc="http://creativecommons.org/ns#"
   xmlns:rdf="http://www.w3.org/1999/02/22-rdf-syntax-ns#"
   xmlns:svg="http://www.w3.org/2000/svg"
   xmlns="http://www.w3.org/2000/svg"
   xmlns:sodipodi="http://sodipodi.sourceforge.net/DTD/sodipodi-0.dtd"
   xmlns:inkscape="http://www.inkscape.org/namespaces/inkscape"
   width="199.3618"
   height="200.42056"
   viewBox="0 0 52.747807 53.027942"
   version="1.1"
   id="svg8"
   inkscape:version="0.92.5 (2060ec1f9f, 2020-04-08)"
   sodipodi:docname="head.svg"
   inkscape:export-filename="/home/numa/Изображения/игра/куопна/nearestHand.png"
   inkscape:export-xdpi="96"
   inkscape:export-ydpi="96">
  <defs
     id="defs2">
    <mask
       maskUnits="userSpaceOnUse"
       id="mask908">
      <path
         style="fill:#ffffff;fill-opacity:1;stroke:none;stroke-width:0.26458332px;stroke-linecap:butt;stroke-linejoin:miter;stroke-opacity:1"
         d="m 71.569792,42.465625 c 0,0 -2.645836,5.490104 0.727604,6.35 3.373435,0.859896 3.836458,7.540625 3.638021,8.268229 -0.198438,0.727604 5.622393,5.027083 6.35,5.027083 0.727604,0 2.182812,8.334375 3.505729,8.400519 1.587497,1.124484 14.765064,4.020783 12.633854,13.69219 l 7.04688,8.77802 c 0,0 7.04218,7.824584 -12.140109,7.626144 -19.182292,-0.19844 -23.703775,1.84333 -26.061459,1.85208 -2.357683,0.009 -6.085416,-1.5875 -8.995833,-1.12447 -2.910417,0.46302 -6.443866,5.67204 -6.443866,5.67204 l 78.663767,-2.55987 0.0293,-5.687162 z"
         id="path910"
         inkscape:connector-curvature="0"
         sodipodi:nodetypes="cssscccszccccc" />
    </mask>
    <mask
       maskUnits="userSpaceOnUse"
       id="mask913">
      <path
         sodipodi:nodetypes="czzssssccccc"
         inkscape:connector-curvature="0"
         id="path915"
         d="m 60.192708,35.057292 c 0,0 0.817819,7.288508 0.198433,8.40052 -0.619385,1.11201 -0.712658,6.303495 0.79375,7.672917 1.506407,1.369423 2.666759,5.316421 2.116666,8.433594 -0.198437,1.124479 5.816812,2.91511 5.291667,10.748698 -0.06763,1.008822 0.0555,13.929685 -6.8785,20.640384 -6.876733,6.655273 -20.783735,7.111145 -27.361542,5.642671 -16.66527,-3.720471 -16.494089,3.925974 -16.494089,3.925974 l 88.123887,10.85947 2.25446,-24.150017 -38.266282,-54.283919 z"
         style="fill:#ffffff;stroke:none;stroke-width:0.26458332px;stroke-linecap:butt;stroke-linejoin:miter;stroke-opacity:1" />
    </mask>
    <mask
       maskUnits="userSpaceOnUse"
       id="mask2087">
      <path
         style="fill:#fff7ec;fill-opacity:1;stroke:none;stroke-width:0.26458332px;stroke-linecap:butt;stroke-linejoin:miter;stroke-opacity:1"
         d="m 11.178646,85.725 c 0,0 -6.2838543,-2.38125 -4.1671879,-6.482294 2.1166669,-4.101039 0.5953125,-6.482289 3.2411459,-6.482289 2.645833,0 5.027083,0.926039 5.027083,0.926039 0,0 1.653646,0.859898 4.696354,0.661461 3.042709,-0.198438 4.233334,-2.248961 4.431771,-4.034896 0.198438,-1.78594 2.976563,1.785935 2.976563,1.785935 l 0.661458,5.159375 z"
         id="path2089"
         inkscape:connector-curvature="0" />
    </mask>
    <mask
       maskUnits="userSpaceOnUse"
       id="mask2226">
      <path
         style="fill:#ffffff;fill-opacity:1;stroke:none;stroke-width:0.26458332px;stroke-linecap:butt;stroke-linejoin:miter;stroke-opacity:1"
         d="m 47.492708,16.007291 c 0,0 18.785417,18.785417 18.25625,37.570834 L 75.670831,42.730208 64.822917,23.283333 Z"
         id="path2228"
         inkscape:connector-curvature="0"
         sodipodi:nodetypes="ccccc" />
    </mask>
    <filter
       inkscape:collect="always"
       style="color-interpolation-filters:sRGB"
       id="filter2250"
       x="-0.17793559"
       width="1.3558712"
       y="-0.18211289"
       height="1.3642257">
      <feGaussianBlur
         inkscape:collect="always"
         stdDeviation="0.27786881"
         id="feGaussianBlur2252" />
    </filter>
    <filter
       inkscape:collect="always"
       style="color-interpolation-filters:sRGB"
       id="filter2318"
       x="-0.16714838"
       width="1.3342968"
       y="-0.19499248"
       height="1.389985">
      <feGaussianBlur
         inkscape:collect="always"
         stdDeviation="0.18290856"
         id="feGaussianBlur2320" />
    </filter>
    <filter
       inkscape:collect="always"
       style="color-interpolation-filters:sRGB"
       id="filter2342"
       x="-0.12862688"
       width="1.2572538"
       y="-0.13555479"
       height="1.2711096">
      <feGaussianBlur
         inkscape:collect="always"
         stdDeviation="0.17088025"
         id="feGaussianBlur2344" />
    </filter>
    <filter
       inkscape:collect="always"
       style="color-interpolation-filters:sRGB"
       id="filter2370"
       x="-0.19188896"
       width="1.3837779"
       y="-0.19211116"
       height="1.3842223">
      <feGaussianBlur
         inkscape:collect="always"
         stdDeviation="0.15134612"
         id="feGaussianBlur2372" />
    </filter>
  </defs>
  <sodipodi:namedview
     id="base"
     pagecolor="#ffffff"
     bordercolor="#666666"
     borderopacity="1.0"
     inkscape:pageopacity="0.0"
     inkscape:pageshadow="2"
     inkscape:zoom="0.70710678"
     inkscape:cx="32.540703"
     inkscape:cy="68.887696"
     inkscape:document-units="mm"
     inkscape:current-layer="svg8"
     showgrid="false"
     units="px"
     inkscape:window-width="1600"
     inkscape:window-height="829"
     inkscape:window-x="0"
     inkscape:window-y="0"
     inkscape:window-maximized="1"
     fit-margin-top="0"
     fit-margin-left="0"
     fit-margin-right="0"
     fit-margin-bottom="0" />
  <metadata
     id="metadata5">
    <rdf:RDF>
      <cc:Work
         rdf:about="">
        <dc:format>image/svg+xml</dc:format>
        <dc:type
           rdf:resource="http://purl.org/dc/dcmitype/StillImage" />
        <dc:title></dc:title>
      </cc:Work>
    </rdf:RDF>
  </metadata>
  <g
     inkscape:label="Layer 1"
     inkscape:groupmode="layer"
     id="layer1"
     style="display:none;opacity:1"
     transform="translate(-20.450987,-182.25196)"
     sodipodi:insensitive="true" />
  <path
     style="fill:#636059;fill-opacity:1;stroke:none;stroke-width:0.79374999;stroke-linecap:butt;stroke-linejoin:miter;stroke-miterlimit:4;stroke-dasharray:none;stroke-opacity:1"
     d="m 25.057346,50.718861 c 0,0 -23.0187503,8.995833 -23.0187503,-12.038541 0.724969,-1.974717 -0.264583,-3.307292 -0.264583,-3.307292 0,0 -1.98437502,-3.836458 -1.19062502,-9.128125 0.79375002,-5.291666 0.132291,-7.276041 0.132291,-7.276041 0,0 -0.396875,-6.217709 3.04270902,-10.1864588 3.439583,-3.96875 6.4822913,-5.688541 6.4822913,-5.688541 0,0 14.193654,-4.457929 20.6375,-1.719792 5.125899,2.178111 6.871141,3.370113 6.871141,3.370113 0,0 5.894964,3.030464 9.665317,11.0496788 2.795842,5.946513 3.704167,6.879166 3.704167,6.879166 0,0 2.38125,3.307292 0.529166,5.820833 z"
     id="path2214"
     inkscape:connector-curvature="0"
     inkscape:label="Голова светлая заливка"
     sodipodi:nodetypes="cccscscscsccc" />
  <path
     sodipodi:nodetypes="cccscscscsccc"
     inkscape:label="Голова средняя заливка"
     inkscape:connector-curvature="0"
     id="path2194"
     d="m 45.508333,68.262499 c 0,0 -23.01875,8.995833 -23.01875,-12.038541 C 23.214552,54.249241 22.225,52.916666 22.225,52.916666 c 0,0 -1.984375,-3.836458 -1.190625,-9.128125 0.79375,-5.291666 0.132291,-7.276041 0.132291,-7.276041 0,0 -0.396875,-6.217709 3.042709,-10.186459 3.439583,-3.96875 6.482291,-5.688541 6.482291,-5.688541 0,0 14.193654,-4.457929 20.6375,-1.719792 5.125899,2.178111 6.871141,3.370113 6.871141,3.370113 0,0 5.894964,3.030464 9.665317,11.049679 2.795842,5.946513 3.704167,6.879166 3.704167,6.879166 0,0 2.38125,3.307292 0.529166,5.820833 z"
     style="fill:#45413e;fill-opacity:1;stroke:none;stroke-width:0.79374999;stroke-linecap:butt;stroke-linejoin:miter;stroke-miterlimit:4;stroke-dasharray:none;stroke-opacity:1"
     mask="url(#mask2226)"
     transform="translate(-20.450987,-17.543638)" />
  <path
     style="fill:#5f513f;fill-opacity:1;stroke:#332c26;stroke-width:0.26458332px;stroke-linecap:butt;stroke-linejoin:miter;stroke-opacity:1;filter:url(#filter2250)"
     d="m 5.0866157,8.8792272 c 0,0 2.712785,-0.23386 3.320824,-2.759557 0.608039,-2.525697 -3.22728,1.052373 -3.22728,1.052373 0,0 -0.958829,1.309621 -0.09354,1.707184 z"
     id="path2230"
     inkscape:connector-curvature="0"
     inkscape:label="пятно" />
  <path
     style="fill:#5f513f;fill-opacity:1;stroke:#332c26;stroke-width:0.26458332px;stroke-linecap:butt;stroke-linejoin:miter;stroke-opacity:1;filter:url(#filter2318)"
     d="m 9.8339907,6.4003032 c 0,0 -0.818512,-1.824115 1.1926913,-2.198292 2.011201,-0.374178 1.028986,1.356393 1.028986,1.356393 0,0 -0.35079,0.701582 -2.2216773,0.841899 z"
     id="path2232"
     inkscape:connector-curvature="0"
     inkscape:label="пятно" />
  <path
     style="fill:#5f513f;fill-opacity:1;stroke:#332c26;stroke-width:0.26458332px;stroke-linecap:butt;stroke-linejoin:miter;stroke-opacity:1;filter:url(#filter2342)"
     d="m 28.199273,27.600893 c 0,0 -0.463021,-2.38125 1.686719,-2.116667 2.149739,0.264583 1.289843,2.248958 1.289843,2.248958 0,0 -1.554427,1.785938 -2.976562,-0.132291 z"
     id="path2234"
     inkscape:connector-curvature="0"
     inkscape:label="пятно" />
  <path
     style="fill:#5f513f;fill-opacity:1;stroke:#332c26;stroke-width:0.26458332px;stroke-linecap:butt;stroke-linejoin:miter;stroke-opacity:1;filter:url(#filter2370)"
     d="m 31.870367,26.013393 c 0,0 -0.132292,-1.488282 0.926041,-1.389063 1.058333,0.09922 0.959115,1.256771 0.959115,1.256771 0,0 -0.727604,1.322917 -1.885156,0.132292 z"
     id="path2236"
     inkscape:connector-curvature="0"
     inkscape:label="пятно" />
  <path
     style="fill:#45413e;fill-opacity:1;stroke:none;stroke-width:0.26458332px;stroke-linecap:butt;stroke-linejoin:miter;stroke-opacity:1"
     d="m 3.7004737,46.08511 c 0,0 5.065732,5.287033 20.4347353,4.780161 0,0 -16.5412963,6.135179 -20.4347353,-4.780161 z"
     id="path2222"
     inkscape:connector-curvature="0"
     inkscape:label="складка"
     sodipodi:nodetypes="ccc" />
  <path
     style="fill:none;stroke:#2a2723;stroke-width:0.79374999;stroke-linecap:round;stroke-linejoin:miter;stroke-miterlimit:4;stroke-dasharray:none;stroke-opacity:1"
     d="m 4.9930717,42.859207 c 0,0 9.2141163,9.027028 17.5395613,0.514493"
     id="path2224"
     inkscape:connector-curvature="0"
     inkscape:label="складка" />
  <path
     style="fill:none;stroke:#2a2723;stroke-width:0.79374999;stroke-linecap:round;stroke-linejoin:miter;stroke-miterlimit:4;stroke-dasharray:none;stroke-opacity:1"
     d="m 25.057346,50.718861 c 0,0 -23.0187503,8.995833 -23.0187503,-12.038541 0.210475,-1.647312 -0.264583,-3.307292 -0.264583,-3.307292 0,0 -1.98437502,-3.836458 -1.19062502,-9.128125 0.79375002,-5.291666 0.132291,-7.276041 0.132291,-7.276041 0,0 -0.396875,-6.217709 3.04270902,-10.1864588 3.439583,-3.96875 5.389084,-5.099946 6.4822913,-5.688541 1.093207,-0.588595 14.193654,-4.457929 20.6375,-1.719792 5.125899,2.178111 6.871141,3.370113 6.871141,3.370113 0,0 5.894964,3.030464 9.665317,11.0496788 2.795842,5.946513 3.704167,6.879166 3.704167,6.879166 0,0 2.38125,3.307292 0.529166,5.820833"
     id="path2192"
     inkscape:connector-curvature="0"
     inkscape:label="Голова обводка"
     sodipodi:nodetypes="cccscszscscc" />
</svg>
