<?xml version="1.0" encoding="UTF-8" standalone="no"?>
<!-- Created with Inkscape (http://www.inkscape.org/) -->

<svg
   xmlns:dc="http://purl.org/dc/elements/1.1/"
   xmlns:cc="http://creativecommons.org/ns#"
   xmlns:rdf="http://www.w3.org/1999/02/22-rdf-syntax-ns#"
   xmlns:svg="http://www.w3.org/2000/svg"
   xmlns="http://www.w3.org/2000/svg"
   xmlns:sodipodi="http://sodipodi.sourceforge.net/DTD/sodipodi-0.dtd"
   xmlns:inkscape="http://www.inkscape.org/namespaces/inkscape"
   width="126.84866"
   height="52.040016"
   viewBox="0 0 33.562038 13.768921"
   version="1.1"
   id="svg8"
   inkscape:version="0.92.5 (2060ec1f9f, 2020-04-08)"
   sodipodi:docname="mouth.svg"
   inkscape:export-filename="/home/numa/Изображения/игра/куопна/head.png"
   inkscape:export-xdpi="96"
   inkscape:export-ydpi="96">
  <defs
     id="defs2">
    <mask
       maskUnits="userSpaceOnUse"
       id="mask908">
      <path
         style="fill:#ffffff;fill-opacity:1;stroke:none;stroke-width:0.26458332px;stroke-linecap:butt;stroke-linejoin:miter;stroke-opacity:1"
         d="m 71.569792,42.465625 c 0,0 -2.645836,5.490104 0.727604,6.35 3.373435,0.859896 3.836458,7.540625 3.638021,8.268229 -0.198438,0.727604 5.622393,5.027083 6.35,5.027083 0.727604,0 2.182812,8.334375 3.505729,8.400519 1.587497,1.124484 14.765064,4.020783 12.633854,13.69219 l 7.04688,8.77802 c 0,0 7.04218,7.824584 -12.140109,7.626144 -19.182292,-0.19844 -23.703775,1.84333 -26.061459,1.85208 -2.357683,0.009 -6.085416,-1.5875 -8.995833,-1.12447 -2.910417,0.46302 -6.443866,5.67204 -6.443866,5.67204 l 78.663767,-2.55987 0.0293,-5.687162 z"
         id="path910"
         inkscape:connector-curvature="0"
         sodipodi:nodetypes="cssscccszccccc" />
    </mask>
    <mask
       maskUnits="userSpaceOnUse"
       id="mask913">
      <path
         sodipodi:nodetypes="czzssssccccc"
         inkscape:connector-curvature="0"
         id="path915"
         d="m 60.192708,35.057292 c 0,0 0.817819,7.288508 0.198433,8.40052 -0.619385,1.11201 -0.712658,6.303495 0.79375,7.672917 1.506407,1.369423 2.666759,5.316421 2.116666,8.433594 -0.198437,1.124479 5.816812,2.91511 5.291667,10.748698 -0.06763,1.008822 0.0555,13.929685 -6.8785,20.640384 -6.876733,6.655273 -20.783735,7.111145 -27.361542,5.642671 -16.66527,-3.720471 -16.494089,3.925974 -16.494089,3.925974 l 88.123887,10.85947 2.25446,-24.150017 -38.266282,-54.283919 z"
         style="fill:#ffffff;stroke:none;stroke-width:0.26458332px;stroke-linecap:butt;stroke-linejoin:miter;stroke-opacity:1" />
    </mask>
    <mask
       maskUnits="userSpaceOnUse"
       id="mask2087">
      <path
         style="fill:#fff7ec;fill-opacity:1;stroke:none;stroke-width:0.26458332px;stroke-linecap:butt;stroke-linejoin:miter;stroke-opacity:1"
         d="m 11.178646,85.725 c 0,0 -6.2838543,-2.38125 -4.1671879,-6.482294 2.1166669,-4.101039 0.5953125,-6.482289 3.2411459,-6.482289 2.645833,0 5.027083,0.926039 5.027083,0.926039 0,0 1.653646,0.859898 4.696354,0.661461 3.042709,-0.198438 4.233334,-2.248961 4.431771,-4.034896 0.198438,-1.78594 2.976563,1.785935 2.976563,1.785935 l 0.661458,5.159375 z"
         id="path2089"
         inkscape:connector-curvature="0" />
    </mask>
    <mask
       maskUnits="userSpaceOnUse"
       id="mask2226">
      <path
         style="fill:#ffffff;fill-opacity:1;stroke:none;stroke-width:0.26458332px;stroke-linecap:butt;stroke-linejoin:miter;stroke-opacity:1"
         d="m 47.492708,16.007291 c 0,0 18.785417,18.785417 18.25625,37.570834 L 75.670831,42.730208 64.822917,23.283333 Z"
         id="path2228"
         inkscape:connector-curvature="0"
         sodipodi:nodetypes="ccccc" />
    </mask>
    <filter
       inkscape:collect="always"
       style="color-interpolation-filters:sRGB"
       id="filter2250"
       x="-0.17793559"
       width="1.3558712"
       y="-0.18211289"
       height="1.3642257">
      <feGaussianBlur
         inkscape:collect="always"
         stdDeviation="0.27786881"
         id="feGaussianBlur2252" />
    </filter>
  </defs>
  <sodipodi:namedview
     id="base"
     pagecolor="#ffffff"
     bordercolor="#666666"
     borderopacity="1.0"
     inkscape:pageopacity="0.0"
     inkscape:pageshadow="2"
     inkscape:zoom="1.4142136"
     inkscape:cx="61.970305"
     inkscape:cy="12.121651"
     inkscape:document-units="mm"
     inkscape:current-layer="svg8"
     showgrid="false"
     units="px"
     inkscape:window-width="1600"
     inkscape:window-height="829"
     inkscape:window-x="0"
     inkscape:window-y="0"
     inkscape:window-maximized="1"
     fit-margin-top="0"
     fit-margin-left="0"
     fit-margin-right="0"
     fit-margin-bottom="0" />
  <metadata
     id="metadata5">
    <rdf:RDF>
      <cc:Work
         rdf:about="">
        <dc:format>image/svg+xml</dc:format>
        <dc:type
           rdf:resource="http://purl.org/dc/dcmitype/StillImage" />
        <dc:title></dc:title>
      </cc:Work>
    </rdf:RDF>
  </metadata>
  <g
     inkscape:label="Layer 1"
     inkscape:groupmode="layer"
     id="layer1"
     style="display:none;opacity:1"
     transform="translate(-18.366434,-206.64102)"
     sodipodi:insensitive="true" />
  <path
     inkscape:label="Рот светлая заливка"
     sodipodi:nodetypes="cccsscccc"
     inkscape:connector-curvature="0"
     id="path2429"
     d="m 1.8080446,3.9063654 c -1.67233104,1.497968 -2.36588804,2.62107 -0.116242,4.093705 1.265671,-0.124643 6.777597,4.1551496 6.777597,4.1551496 0,0 7.6341704,-5.0464566 8.0971914,-4.6495816 0.463021,0.396875 5.61437,2.8168726 5.878954,2.8168726 0.264583,0 4.007497,-4.0542696 9.256404,-2.6304716 L 31.932404,6.9448424 3.7924196,0.26834439 c 0,0 0.132292,2.11666701 -1.984375,3.63802101 z"
     style="display:inline;fill:#636059;fill-opacity:1;stroke:none;stroke-width:0.5291667;stroke-linecap:round;stroke-linejoin:miter;stroke-miterlimit:4;stroke-dasharray:none;stroke-opacity:1" />
  <path
     style="fill:none;stroke:#45413e;stroke-width:2.11666656;stroke-linecap:round;stroke-linejoin:round;stroke-miterlimit:4;stroke-dasharray:none;stroke-opacity:1"
     d="m 3.6034736,9.5062264 4.809222,3.2043796 8.0193634,-4.6940376 5.963651,2.8873516 4.817332,-2.7704206 4.565558,0.0085"
     id="path2425"
     inkscape:connector-curvature="0"
     sodipodi:nodetypes="cccccc"
     inkscape:label="складка" />
  <path
     style="fill:none;stroke:#2a2723;stroke-width:0.79374999;stroke-linecap:round;stroke-linejoin:miter;stroke-miterlimit:4;stroke-dasharray:none;stroke-opacity:1"
     d="m 2.5641106,8.5778344 c 0,0 -1.297927,1.7890346 1.777342,2.7595566"
     id="path2427"
     inkscape:connector-curvature="0"
     sodipodi:nodetypes="cc"
     inkscape:label="складка" />
  <path
     style="display:inline;fill:none;fill-opacity:1;stroke:#2a2723;stroke-width:0.5291667;stroke-linecap:round;stroke-linejoin:miter;stroke-miterlimit:4;stroke-dasharray:none;stroke-opacity:1"
     d="m 3.7924196,0.26834439 c 0,0 0.132292,2.11666701 -1.984375,3.63802101 -1.67233104,1.497968 -2.36588804,2.62107 -0.116242,4.093705 1.265671,-0.124643 6.777597,4.1551496 6.777597,4.1551496 0,0 7.6341704,-5.0464566 8.0971914,-4.6495816 0.463021,0.396875 5.61437,2.8168726 5.878954,2.8168726 0.264583,0 4.007497,-4.0542696 9.256404,-2.6304716 l 0.230455,-0.747197 1.36209,1.075298"
     id="path2423"
     inkscape:connector-curvature="0"
     sodipodi:nodetypes="ccccssccc"
     inkscape:label="Рот обводка" />
  <path
     style="fill:#45413e;fill-opacity:1;stroke:none;stroke-width:0.26458332px;stroke-linecap:butt;stroke-linejoin:miter;stroke-opacity:1"
     d="m 5.3179076,4.5678234 c 0,0 3.60509,1.510516 3.931543,1.537891 0.370862,0.0311 4.0679694,-1.537891 4.0679694,-1.537891 -1.519867,-3.483847 -6.8757784,-2.26375 -7.9995124,0 z"
     id="path2431"
     inkscape:connector-curvature="0"
     sodipodi:nodetypes="ssss"
     inkscape:label="Нос заливка" />
  <path
     inkscape:label="Нос обводка"
     sodipodi:nodetypes="csc"
     inkscape:connector-curvature="0"
     id="path2433"
     d="m 5.6445026,4.6670424 c 0,0 3.278495,1.411297 3.604948,1.438672 0.370862,0.0311 3.7703134,-1.455209 3.7703134,-1.455209"
     style="fill:none;stroke:#2a2723;stroke-width:0.79374999;stroke-linecap:round;stroke-linejoin:miter;stroke-miterlimit:4;stroke-dasharray:none;stroke-opacity:1" />
</svg>
